<svg xmlns="http://www.w3.org/2000/svg" viewBox="0 0 128 128">
  <g fill="gray" stroke-width="2.374">
    <path d="M32.56 113.833c-.037-.097-.068-3.981-.068-8.633v-8.456l-.53-.514a50.58 50.58 0 0 0-1.872-1.641c-1.705-1.435-4.255-4.017-5.792-5.867-3.622-4.357-6.568-9.671-8.264-14.906-.83-2.56-1.52-5.752-1.888-8.728-.195-1.574-.194-7.884 0-9.45 1.294-10.375 5.668-19.347 13.04-26.746 6.906-6.934 15.727-11.705 25.46-13.773C56.79 14.239 59.213 14 64 14c4.788 0 7.21.239 11.353 1.119 9.734 2.068 18.555 6.84 25.462 13.773 7.368 7.396 11.745 16.375 13.038 26.746.195 1.566.196 7.876.001 9.45-1.275 10.296-5.564 19.184-12.815 26.558-3.205 3.259-6.63 5.933-10.45 8.16-1.563.913-5.312 2.73-6.991 3.388-6.963 2.735-14.699 3.994-22.139 3.605-3.688-.193-6.013-.508-9.69-1.31-1.58-.344-1.844-.374-2.29-.262-.278.07-3.9 1.988-8.048 4.264-4.148 2.276-7.732 4.223-7.965 4.328-.527.237-.818.241-.906.014zm49.835-51.784c7.304-7.757 13.325-14.181 13.38-14.277.08-.14.057-.16-.112-.095-.116.044-5.528 3.029-12.025 6.633-6.498 3.605-11.835 6.553-11.861 6.553-.026 0-2.95-3.029-6.5-6.731-3.547-3.702-6.509-6.717-6.58-6.699-.07.018-5.252 5.486-11.515 12.152a51083.73 51083.73 0 0 1-13.317 14.17c-1.062 1.129-1.931 2.093-1.931 2.143 0 .132-.058.163 12.178-6.529 12.433-6.8 11.884-6.504 12.098-6.504.085 0 2.966 3.002 6.402 6.672 3.437 3.669 6.306 6.658 6.376 6.643.07-.016 6.103-6.375 13.407-14.131z"/>
    <path d="M32.679 113.823c-.041-.04-.078-3.905-.083-8.588-.004-4.684-.042-8.597-.083-8.696-.042-.1-.705-.694-1.473-1.32-1.885-1.538-5.604-5.274-7.082-7.116-4.707-5.864-7.834-12.617-9.162-19.79-.531-2.868-.671-4.498-.673-7.839-.002-4.08.328-6.883 1.231-10.45 1.985-7.838 5.984-14.864 11.725-20.597l.585-.584h72.674l.533.528c3.414 3.382 6.45 7.602 8.541 11.869 2.315 4.725 3.601 9.097 4.268 14.51.275 2.235.275 7.186-.001 9.45-1.049 8.601-4.242 16.188-9.638 22.903-1.457 1.812-4.519 4.945-6.355 6.5-5.677 4.812-12.297 8.269-19.703 10.292-5.11 1.395-11.26 2.064-16.413 1.785-3.722-.201-6-.516-9.82-1.356-1.87-.411-2.055-.434-2.402-.288-.206.086-3.66 1.966-7.674 4.178-8.951 4.932-8.766 4.837-8.995 4.61zM72.28 72.956c14.729-15.61 20.451-21.67 22.302-23.62.94-.99 1.708-1.852 1.708-1.918 0-.257-.43-.077-2.328.978l-8.622 4.796c-11.904 6.624-13.4 7.45-13.505 7.45-.112 0-2.41-2.367-8.88-9.146-2.262-2.37-4.156-4.308-4.21-4.308-.126 0-1.148 1.065-5.866 6.115-2.143 2.293-4.556 4.87-5.364 5.726C40.588 66.374 31.6 76.016 31.6 76.102c0 .057.056.105.124.105.069 0 1.514-.76 3.213-1.687C52.099 65.145 56.09 62.976 56.18 62.976c.057 0 2.926 3.002 6.375 6.67 3.45 3.67 6.335 6.672 6.412 6.672.078 0 1.569-1.513 3.313-3.362z"/>
    <path d="M32.672 113.722c-.037-.097-.068-4.024-.068-8.727v-8.55l-.861-.697c-7.078-5.722-11.93-12.287-14.89-20.147-4.537-12.046-3.35-25.893 3.15-36.78l.78-1.306h86.435l.78 1.307c5.856 9.808 7.445 22.211 4.273 33.351-2.65 9.305-8.108 17.315-16.093 23.62-6.975 5.508-15.859 9.215-24.977 10.422-2.906.385-4.93.488-8.318.424-4.223-.08-6.862-.397-10.998-1.32-1.126-.251-2.137-.42-2.31-.386-.168.034-3.616 1.883-7.66 4.109-7.225 3.976-8.868 4.856-9.073 4.856-.056 0-.133-.08-.17-.176zm9.805-43.293c5.785-3.16 11.241-6.137 12.125-6.617l1.608-.872.63.657c.346.362 3.165 3.36 6.264 6.661 3.1 3.303 5.721 6.02 5.825 6.038.127.023 1.927-1.806 5.473-5.559 5.798-6.137 11.49-12.16 17.79-18.82 3.8-4.02 4.498-4.86 3.902-4.704-.107.029-5.45 2.98-11.871 6.557-11.447 6.378-12.34 6.871-12.44 6.871-.044 0-6.746-7.008-11.295-11.81-.856-.904-1.642-1.643-1.746-1.643-.104 0-1.44 1.337-2.968 2.972-1.529 1.635-3.508 3.75-4.4 4.7-.89.951-3.279 3.502-5.306 5.67-7.704 8.233-12.798 13.668-13.886 14.813-.66.693-.822 1.06-.4.898.098-.037 4.91-2.653 10.695-5.812z"/>
    <path d="M32.77 113.761c-.028-.078-.065-4.01-.08-8.74l-.03-8.598-.289-.24c-.159-.133-.837-.69-1.508-1.24-2.507-2.05-5.624-5.29-7.681-7.981-6.973-9.123-10.09-20.677-8.617-31.936.16-1.229.582-3.428.81-4.225l.095-.333 19.852-.028c10.918-.016 19.851.01 19.851.058 0 .15-5.839 6.468-16.312 17.65-6.58 7.025-7.374 7.89-7.374 8.03 0 .077.063.14.14.14.155-.002.106.025 14.217-7.67 5.53-3.017 10.136-5.505 10.233-5.531.173-.045 1.151.969 9.755 10.117 1.653 1.757 3.063 3.195 3.134 3.195.07 0 1.885-1.861 4.033-4.136 6.44-6.82 13.365-14.124 15.63-16.485a571.106 571.106 0 0 0 2.298-2.403c.092-.1.793-.815 1.558-1.588l1.39-1.406 9.328.028 9.327.029.095.333c.228.797.65 2.996.81 4.225 1.084 8.281-.243 16.483-3.93 24.294-1.261 2.672-3.465 6.145-5.575 8.783-1.539 1.926-5.352 5.722-7.28 7.249-7.996 6.334-17.229 10.028-27.622 11.054-2.654.262-7.401.262-10.056 0-2.422-.239-5.275-.711-7.512-1.244-1.282-.305-1.775-.38-1.985-.302-.153.058-3.597 1.933-7.653 4.167-8.5 4.682-8.978 4.933-9.052 4.734zm34.36-58.086c-2.531-2.68-4.65-4.961-4.708-5.068-.1-.185.584-.195 13.669-.193l13.774.003-.502.314c-1.117.697-17.204 9.707-17.446 9.77-.126.034-1.603-1.455-4.786-4.826z"/>
    <path d="M32.716 105.105v-8.682l-.363-.311c-.2-.17-.99-.83-1.757-1.464-6.525-5.397-11.543-12.72-14.15-20.65-.789-2.4-1.355-4.927-1.767-7.881l-.066-.473h13.13c7.22 0 13.13.032 13.13.07 0 .098-.28.404-5.13 5.64-2.372 2.56-4.328 4.749-4.348 4.864-.022.13.03.211.133.211.093 0 3.151-1.618 6.796-3.596 9.458-5.133 11.896-6.449 12.684-6.842l.695-.347H58.484l.998 1.03a828.883 828.883 0 0 1 7.934 8.34c1 1.067 1.392 1.413 1.57 1.39.134-.017.785-.61 1.501-1.365.696-.734 2.126-2.235 3.177-3.335l3.791-3.968c1.034-1.082 1.952-1.995 2.042-2.03.09-.034 7.752-.062 17.027-.062h16.863l-.066.473c-.75 5.385-1.986 9.376-4.345 14.037-3.63 7.17-9.043 13.194-15.982 17.787-7.01 4.638-14.46 7.318-23.24 8.359-2.397.284-9.108.284-11.508 0-2.259-.267-4.579-.67-6.546-1.134-.897-.212-1.771-.385-1.943-.385-.203 0-3.182 1.58-8.488 4.502-4.496 2.477-8.26 4.503-8.364 4.503-.176 0-.19-.592-.19-8.681z"/>
    <path d="M32.773 113.677c-.043-.069-.043-3.912 0-8.541.043-4.629.035-8.522-.018-8.651-.052-.13-.651-.687-1.331-1.238-5.14-4.17-9.36-9.307-12.04-14.655a41.324 41.324 0 0 1-.783-1.634l-.175-.417h91.144l-.266.64c-.436 1.048-1.482 2.992-2.419 4.496-3.009 4.828-7.089 9.22-11.88 12.786-6.306 4.693-14.083 7.974-22.075 9.313-3.138.525-5.473.712-8.93.712-4.535 0-8.324-.435-12.51-1.436-1.352-.323-1.793-.389-2.023-.302-.162.06-3.889 2.092-8.282 4.515-4.393 2.422-8.066 4.434-8.161 4.47-.096.037-.209.01-.251-.058z"/>
    <path d="M32.83 105.086c.016-4.724.022-8.648.014-8.72-.01-.072-.532-.566-1.162-1.097-.63-.53-1.162-1.01-1.182-1.064-.022-.056 14.109-.098 33.49-.098 18.441 0 33.529.04 33.529.087 0 .14-2.1 1.831-3.596 2.895-5.1 3.628-10.654 6.172-16.907 7.747-8.439 2.126-17.065 2.156-25.706.091l-1.685-.403-8.278 4.576c-4.553 2.516-8.339 4.575-8.413 4.575-.103 0-.127-1.966-.104-8.589z"/>
  </g>
</svg>
